<?xml version="1.0" encoding="iso-8859-1"?>
<!-- Generator: Adobe Illustrator 21.0.0, SVG Export Plug-In . SVG Version: 6.00 Build 0)  -->
<svg version="1.1" id="Layer_1" xmlns="http://www.w3.org/2000/svg" xmlns:xlink="http://www.w3.org/1999/xlink" x="0px" y="0px"
	 viewBox="0 0 184 41" style="enable-background:new 0 0 184 41;" xml:space="preserve" height="41px" width="183px">
<g>
	<path style="fill:#031795;" d="M26.168,5.381c-3.164-2.644-6.3-4.798-10.372-5.117c-3.095-0.243-4.719,2.278-6.184,4.882
		C7.166,9.496-0.69,26.159,0.225,32.127c1.958,12.776,26.348,9.121,35.301,3.302C42.461,30.923,38.741,15.886,26.168,5.381
		 M34.347,27.429c-0.05,0.537-0.126,1.066-0.233,1.582c-0.801,3.889-4.259,5.874-7.683,6.843c-3.253,0.921-6.56,1.646-9.905,2.097
		c-2.77,0.374-5.562,0.288-8.327-0.982c-6.422-2.949-3.795-10.442-2.07-14.553c2.241-5.341,4.066-10.743,6.704-16.209
		c0.891-1.847,3.262-3.28,5.513-2.436c2.589,0.972,4.949,2.633,6.867,4.622c2.666,2.768,5.033,5.398,6.763,8.888
		C33.376,20.105,34.65,24.146,34.347,27.429 M29.984,21.578c-0.814-2.063-5.102-11.481-10.006-14.244
		c-3.261-1.838-5.319,2.539-6.134,4.311c-1.432,3.118-2.732,6.298-4.108,9.443c-1.344,3.071-2.575,6.828-1.777,10.325
		c0.551,2.414,2.906,3.672,5.042,3.83c3.108,0.231,11.568-1.795,13.024-2.446c3.425-1.528,4.409-3.368,4.947-5.47
		C31.416,25.585,30.675,23.331,29.984,21.578 M22.077,31.149c-1.854,0.623-6.869,1.745-10.031,0.777
		c-2.663-0.814-1.334-5.455-0.654-7.403c0.925-2.651,5.166-12.701,5.959-13.447c1.976-1.86,4.171,1.335,5.574,3.322
		C32.624,26.864,24.842,30.22,22.077,31.149 M57.627,29.648h-3.226l-0.967-2.919H53.39l-1.841,0.649h-2.828l-0.73,2.271h-3.095
		l4.465-13.3h3.8L57.627,29.648z M49.64,24.458h3.11l-1.546-4.866h-0.019L49.64,24.458z M68.347,29.648h-3.244v-5.562
		c0-0.959-0.608-1.534-1.521-1.534c-1.216,0-1.723,0.863-1.723,2.301v4.794H58.94v-9.731h2.919v1.298h0.02
		c0.689-0.863,1.703-1.342,2.919-1.342c2.332,0,3.548,1.342,3.548,3.814V29.648z M77.43,19.916h2.919v8.82
		c0,2.893-1.916,5.015-5.11,5.015c-2.007,0-3.376-0.578-4.38-1.35l1.551-2.025c0.511,0.328,1.369,0.772,2.646,0.772
		c1.588,0,2.372-0.984,2.372-2.411V28.35h-0.018c-0.529,0.868-1.533,1.35-2.81,1.35c-2.738,0-4.38-2.122-4.38-4.919
		c0-2.797,1.642-4.918,4.38-4.918c1.277,0,2.281,0.482,2.81,1.35h0.018V19.916z M77.337,24.735c0-1.323-0.921-2.205-2.205-2.205
		c-1.285,0-2.205,0.883-2.205,2.205c0,1.323,0.92,2.205,2.205,2.205C76.417,26.941,77.337,26.059,77.337,24.735 M85.54,29.648H82.62
		v-13.3h2.919V29.648z M87.012,24.831c0-2.877,2.11-4.986,5.178-4.986c3.069,0,5.178,2.109,5.178,4.986s-2.11,4.986-5.178,4.986
		C89.122,29.817,87.012,27.708,87.012,24.831 M94.204,24.831c0-1.323-0.729-2.301-2.014-2.301c-1.285,0-2.013,0.978-2.013,2.301
		c0,1.323,0.729,2.301,2.013,2.301C93.475,27.132,94.204,26.155,94.204,24.831 M110.733,29.648h-3.225l-0.967-2.919h-0.043
		l-1.842,0.649h-2.828l-0.73,2.271h-3.094l4.465-13.3h3.8L110.733,29.648z M102.746,24.458h3.11l-1.546-4.866h-0.019L102.746,24.458
		z M127.061,23.809v5.839h-2.919v-5.562c0-0.959-0.584-1.534-1.265-1.534c-1.168,0-1.654,0.863-1.654,2.301v4.794h-3.244v-5.562
		c0-0.959-0.584-1.534-1.265-1.534c-1.168,0-1.654,0.863-1.654,2.301v4.794h-2.919v-9.731h2.919v1.298h0.165
		c0.556-0.889,1.515-1.369,2.665-1.369c1.362,0,2.838,1.693,2.838,1.693h0.038c0.575-0.863,1.439-1.63,2.973-1.63
		c2.301,0,3.356,1.342,3.356,3.816 M138.739,25.755h-6.812c0.288,0.921,1.017,1.438,2.072,1.438c0.959,0,1.572-0.441,1.917-0.959
		l2.302,1.534c-0.863,1.055-2.206,1.918-4.315,1.918c-3.164,0-5.274-2.109-5.274-4.986s2.11-4.986,5.178-4.986
		c2.877,0,4.89,1.918,4.89,5.139c0,0.288,0,0.595-0.038,0.902 M135.629,23.809c-0.096-0.959-0.575-1.63-1.822-1.63
		c-0.997,0-1.668,0.595-1.918,1.63H135.629z M146.199,22.958c-2.627,0-2.919,0.608-2.919,2.432v4.258h-2.919v-9.731h2.919v1.622
		h0.02c0.565-1.216,1.343-1.824,2.9-1.824V22.958z M147.136,17.352c0-0.959,0.767-1.726,1.726-1.726
		c0.959,0,1.726,0.767,1.726,1.726c0,0.959-0.767,1.726-1.726,1.726C147.903,19.078,147.136,18.311,147.136,17.352 M150.416,29.648
		h-2.919v-9.731h2.919V29.648z M159.026,25.982l2.493,1.457c-0.94,1.477-2.493,2.378-4.507,2.378c-2.972,0-5.082-2.109-5.082-4.986
		s2.11-4.986,5.178-4.986c1.918,0,3.471,0.901,4.411,2.378l-2.493,1.457c-0.479-0.805-1.112-1.151-1.918-1.151
		c-1.285,0-2.013,0.978-2.013,2.301c0,1.323,0.729,2.301,2.013,2.301C157.914,27.132,158.547,26.787,159.026,25.982 M169.88,21.214
		v-1.298h2.919v9.731h-2.919V28.35h-0.019c-0.445,0.691-1.217,1.131-2.203,1.268c-2.746,0.383-5.108-1.845-5.194-4.616
		c-0.09-2.929,1.614-5.103,4.504-5.103c1.315,0,2.348,0.469,2.892,1.315H169.88z M169.862,24.831c0-1.419-0.921-2.301-2.205-2.301
		c-1.286,0-2.206,0.883-2.206,2.301c0,1.419,0.92,2.301,2.206,2.301C168.941,27.132,169.862,26.25,169.862,24.831 M184.152,29.648
		h-3.244v-5.562c0-0.959-0.547-1.534-1.368-1.534c-1.095,0-1.551,0.863-1.551,2.301v4.794h-2.919v-9.731h2.919v1.298h0.02
		c0.654-0.863,1.617-1.342,2.773-1.342c2.215,0,3.371,1.342,3.371,3.814V29.648z"/>
	<path style="fill:#FF0000;" d="M24.61,22.599c-0.819-1.778-2.205-4.122-4.002-5.73c-0.693-0.619-2.684-1.347-3.292,0.313
		c-1.097,2.892-1.956,5.883-2.775,8.776c-0.226,0.799-0.595,2.803,0.257,3.333c1.951,1.218,7.477-2.391,9.185-3.478
		C24.958,25.196,25.083,23.626,24.61,22.599 M22.011,24.267c-1.228,1.086-3.266,2.431-4.683,2.375
		c-1.459-0.057,0.589-6.426,1.777-7.395c0.96-0.782,3.05,2.816,3.173,3.195C22.481,23.063,22.457,23.872,22.011,24.267"/>
</g>
</svg>
